<svg xmlns="http://www.w3.org/2000/svg" width="1200" height="630" viewBox="0 0 1200 630">
  <defs>
    <radialGradient id="g-cyan" cx="92%" cy="8%" r="55%" gradientUnits="objectBoundingBox">
      <stop offset="0%" stop-color="#69EEFF" stop-opacity="0.38"/>
      <stop offset="55%" stop-color="#6EFFB6" stop-opacity="0.14"/>
      <stop offset="100%" stop-color="#000000" stop-opacity="0"/>
    </radialGradient>
    <radialGradient id="g-lavender" cx="96%" cy="78%" r="42%" gradientUnits="objectBoundingBox">
      <stop offset="0%" stop-color="#C6A2FF" stop-opacity="0.30"/>
      <stop offset="100%" stop-color="#000000" stop-opacity="0"/>
    </radialGradient>
    <radialGradient id="g-mint" cx="4%" cy="96%" r="28%" gradientUnits="objectBoundingBox">
      <stop offset="0%" stop-color="#7EF893" stop-opacity="0.20"/>
      <stop offset="100%" stop-color="#000000" stop-opacity="0"/>
    </radialGradient>
  </defs>

  <!-- Background -->
  <rect width="1200" height="630" fill="#000000"/>

  <!-- Holographic atmosphere -->
  <rect width="1200" height="630" fill="url(#g-cyan)"/>
  <rect width="1200" height="630" fill="url(#g-lavender)"/>
  <rect width="1200" height="630" fill="url(#g-mint)"/>

  <!-- Panel divider -->
  <line x1="740" y1="44" x2="740" y2="586" stroke="#ffffff" stroke-opacity="0.05" stroke-width="1"/>

  <!-- ── Left content panel ── -->

  <!-- Icon (56 × 56 px) -->
  <g transform="translate(96,76) scale(0.0698)" fill="#ffffff">
    <path d="M395.72.04C178.657,3.069,1.874,180.861.015,397.936c-1.266,147.847,77.406,277.404,195.394,348.099,23.853,14.292,53.056-7.712,46.182-34.656L131.793,315.344c-3.77-13.223-15.179-19.835-26.661-23.572-7.155-3.165-14.09-6.617-16.057-13.514-3.443-12.075,10.997-14.663,28.209-22.138,24.939-10.64,30.78-14.182,42.39-14.182,10.712,0,18.517,5.463,21.96,17.537.143.503.316,1.114.518,1.827,2.445,8.665,8.842,15.8,17.313,18.85,99.037,35.662,201.892-10.012,273.821-43.582,11.259-5.255,23.166,5.875,18.713,17.475l-19.686,51.288c-1.117,2.91,1.649,5.782,4.611,4.812,62.99-20.624,127.135-29.066,196.064,12.906,8.793,5.354,14.505,14.608,15.133,24.884,1.012,16.539,1.803,29.454,2.744,44.832.613,10.025-10.141,16.685-18.875,11.726-80.444-45.677-154.469-23.713-227.912,4.401-6.091,2.331-10.89,7.164-13.227,13.252l-23.496,61.218c-1.141,2.972,1.769,5.925,4.747,4.801,92.191-34.777,183.206-81.941,284.565-20.089,8.716,5.319,14.317,14.561,14.941,24.753,1.013,16.546,1.803,29.464,2.744,44.846.612,9.997-10.113,16.704-18.822,11.756-110.463-62.762-208.824,2.016-310.185,35.177-11.028,3.608-21.286-7.295-17.128-18.128l21.859-56.953c1.117-2.91-1.649-5.783-4.612-4.813-26.459,8.661-53.122,15.165-80.259,16.687-25.849,1.45-43.632,26.596-36.672,51.532,5.646,20.229,10.336,36.935,13.513,48.075l51.472,165.926c9.187,29.614,36.392,50.327,67.398,50.369.184,0,.368,0,.552,0,221.716,0,401.453-179.736,401.453-401.453C802.905,177.829,620.062-3.09,395.72.04Z"/>
    <path d="M418.294,371.566c6.091-2.33,10.89-7.162,13.227-13.25l23.496-61.219c1.141-2.972-1.769-5.926-4.748-4.802-75.134,28.34-149.493,64.86-229.303,43.936-4.087-1.071-7.795,2.68-6.669,6.752,2.861,10.346,5.811,21.013,8.81,31.853,3.208,11.599,12.565,20.583,24.33,23.113,58.99,12.682,115.094-5.049,170.856-26.383Z"/>
  </g>

  <!-- "Founding Creative" headline (italic serif echoes Gelica display) -->
  <text
    x="96" y="308"
    font-family="Georgia, 'Times New Roman', Times, serif"
    font-size="66"
    font-weight="400"
    font-style="italic"
    fill="#ffffff"
    letter-spacing="-1"
  >Founding Creative</text>

  <!-- "DESIGN SYSTEM" label — mint, uppercase, tracked -->
  <text
    x="99" y="358"
    font-family="'Helvetica Neue', Arial, Helvetica, sans-serif"
    font-size="19"
    font-weight="700"
    fill="#7EF893"
    letter-spacing="7"
  >DESIGN SYSTEM</text>

  <!-- One-line descriptor -->
  <text
    x="96" y="422"
    font-family="'Helvetica Neue', Arial, Helvetica, sans-serif"
    font-size="18"
    fill="#ffffff"
    fill-opacity="0.38"
    letter-spacing="0.2"
  >Color · Type · Spacing · Components</text>

  <!-- Mint accent rule -->
  <rect x="96" y="476" width="88" height="2" rx="1" fill="#7EF893"/>

  <!-- Domain -->
  <text
    x="96" y="514"
    font-family="'Helvetica Neue', Arial, Helvetica, sans-serif"
    font-size="15"
    fill="#ffffff"
    fill-opacity="0.25"
  >brand.foundingcreative.com</text>

  <!-- ── Right panel: holographic icon watermark ── -->

  <!-- Large icon watermark (256 × 256 px, centred in right panel) -->
  <g transform="translate(842,187) scale(0.319)" fill="#ffffff" opacity="0.09">
    <path d="M395.72.04C178.657,3.069,1.874,180.861.015,397.936c-1.266,147.847,77.406,277.404,195.394,348.099,23.853,14.292,53.056-7.712,46.182-34.656L131.793,315.344c-3.77-13.223-15.179-19.835-26.661-23.572-7.155-3.165-14.09-6.617-16.057-13.514-3.443-12.075,10.997-14.663,28.209-22.138,24.939-10.64,30.78-14.182,42.39-14.182,10.712,0,18.517,5.463,21.96,17.537.143.503.316,1.114.518,1.827,2.445,8.665,8.842,15.8,17.313,18.85,99.037,35.662,201.892-10.012,273.821-43.582,11.259-5.255,23.166,5.875,18.713,17.475l-19.686,51.288c-1.117,2.91,1.649,5.782,4.611,4.812,62.99-20.624,127.135-29.066,196.064,12.906,8.793,5.354,14.505,14.608,15.133,24.884,1.012,16.539,1.803,29.454,2.744,44.832.613,10.025-10.141,16.685-18.875,11.726-80.444-45.677-154.469-23.713-227.912,4.401-6.091,2.331-10.89,7.164-13.227,13.252l-23.496,61.218c-1.141,2.972,1.769,5.925,4.747,4.801,92.191-34.777,183.206-81.941,284.565-20.089,8.716,5.319,14.317,14.561,14.941,24.753,1.013,16.546,1.803,29.464,2.744,44.846.612,9.997-10.113,16.704-18.822,11.756-110.463-62.762-208.824,2.016-310.185,35.177-11.028,3.608-21.286-7.295-17.128-18.128l21.859-56.953c1.117-2.91-1.649-5.783-4.612-4.813-26.459,8.661-53.122,15.165-80.259,16.687-25.849,1.45-43.632,26.596-36.672,51.532,5.646,20.229,10.336,36.935,13.513,48.075l51.472,165.926c9.187,29.614,36.392,50.327,67.398,50.369.184,0,.368,0,.552,0,221.716,0,401.453-179.736,401.453-401.453C802.905,177.829,620.062-3.09,395.72.04Z"/>
    <path d="M418.294,371.566c6.091-2.33,10.89-7.162,13.227-13.25l23.496-61.219c1.141-2.972-1.769-5.926-4.748-4.802-75.134,28.34-149.493,64.86-229.303,43.936-4.087-1.071-7.795,2.68-6.669,6.752,2.861,10.346,5.811,21.013,8.81,31.853,3.208,11.599,12.565,20.583,24.33,23.113,58.99,12.682,115.094-5.049,170.856-26.383Z"/>
  </g>

  <!-- Brand palette dots (bottom-right) -->
  <circle cx="905"  cy="564" r="13" fill="#7EF893"/>
  <circle cx="941"  cy="564" r="13" fill="#69EEFF"/>
  <circle cx="977"  cy="564" r="13" fill="#C6A2FF"/>
  <circle cx="1013" cy="564" r="13" fill="#001441" stroke="#ffffff" stroke-opacity="0.18" stroke-width="1"/>
  <circle cx="1049" cy="564" r="13" fill="#230035" stroke="#ffffff" stroke-opacity="0.18" stroke-width="1"/>
</svg>
