<?xml version="1.0" encoding="UTF-8"?>
<svg id="b" data-name="Layer 2" xmlns="http://www.w3.org/2000/svg" width="802.905" height="802.905" viewBox="0 0 802.905 802.905">
  <g id="c" data-name="Layer 2">
    <g>
      <path d="M395.72.04C178.657,3.069,1.874,180.861.015,397.936c-1.266,147.847,77.406,277.404,195.394,348.099,23.853,14.292,53.056-7.712,46.182-34.656l-109.818-430.435c-3.77-13.223-15.179-19.835-26.661-23.572-7.155-3.165-14.09-6.617-16.057-13.514-3.443-12.075,10.997-14.663,28.209-22.138,24.939-10.64,30.78-14.182,42.39-14.182,10.712,0,18.517,5.463,21.96,17.537.143.503.316,1.114.518,1.827,2.445,8.665,8.842,15.8,17.313,18.85,99.037,35.662,201.892-10.012,273.821-43.582,11.259-5.255,23.166,5.875,18.713,17.475l-19.686,51.288c-1.117,2.91,1.649,5.782,4.611,4.812,62.99-20.624,127.135-29.066,196.064,12.906,8.793,5.354,14.505,14.608,15.133,24.884,1.012,16.539,1.803,29.454,2.744,44.832.613,10.025-10.141,16.685-18.875,11.726-80.444-45.677-154.469-23.713-227.912,4.401-6.091,2.331-10.89,7.164-13.227,13.252l-23.496,61.218c-1.141,2.972,1.769,5.925,4.747,4.801,92.191-34.777,183.206-81.941,284.565-20.089,8.716,5.319,14.317,14.561,14.941,24.753,1.013,16.546,1.803,29.464,2.744,44.846.612,9.997-10.113,16.704-18.822,11.756-110.463-62.762-208.824,2.016-310.185,35.177-11.028,3.608-21.286-7.295-17.128-18.128l21.859-56.953c1.117-2.91-1.649-5.783-4.612-4.813-26.459,8.661-53.122,15.165-80.259,16.687-25.849,1.45-43.632,26.596-36.672,51.532,5.646,20.229,10.336,36.935,13.513,48.075l51.472,165.926c9.187,29.614,36.392,50.327,67.398,50.369.184,0,.368,0,.552,0,221.716,0,401.453-179.736,401.453-401.453C802.905,177.829,620.062-3.09,395.72.04Z" fill="#fff" stroke-width="0"></path>
      <path d="M418.294,371.566c6.091-2.33,10.89-7.162,13.227-13.25l23.496-61.219c1.141-2.972-1.769-5.926-4.748-4.802-75.134,28.34-149.493,64.86-229.303,43.936-4.087-1.071-7.795,2.68-6.669,6.752,2.861,10.346,5.811,21.013,8.81,31.853,3.208,11.599,12.565,20.583,24.33,23.113,58.99,12.682,115.094-5.049,170.856-26.383Z" fill="#fff" stroke-width="0"></path>
    </g>
  </g>
</svg>