<?xml version="1.0" encoding="UTF-8"?>
<svg id="b" data-name="Layer 2" xmlns="http://www.w3.org/2000/svg" width="2082.276" height="1137.072" viewBox="0 0 2082.276 1137.072">
  <g id="c" data-name="Layer 2">
    <g>
      <path d="M2082.276,209.316c-155,80.939-324.894,113.822-499.01,105.19-256.578-12.719-501.592-100.098-749.793-158.27-126.23-29.585-254.945-52.595-384.953-53.555-157.012-1.16-309.167,33.867-448.519,106.635v-102.653C139.352,33.895,291.508-1.132,448.519.028c130.007.96,258.723,23.97,384.953,53.555,248.201,58.172,493.215,145.551,749.793,158.27,174.116,8.631,344.01-24.252,499.01-105.19,0,34.218,0,68.436,0,102.653Z" stroke-width="0"></path>
      <path d="M2082.276,414.623c-155,80.939-324.894,113.822-499.01,105.191-256.578-12.719-501.592-100.098-749.793-158.271-126.23-29.585-254.946-52.594-384.953-53.555-157.012-1.16-309.167,33.866-448.519,106.635v-102.653c139.352-72.768,291.508-107.795,448.519-106.635,130.007.96,258.723,23.97,384.953,53.555,248.201,58.173,493.215,145.552,749.793,158.271,174.117,8.631,344.01-24.252,499.01-105.191,0,34.218,0,68.435,0,102.653Z" stroke-width="0"></path>
      <path d="M2082.276,619.929c-155,80.939-324.894,113.823-499.01,105.191-256.578-12.719-501.592-100.098-749.793-158.271-126.23-29.585-254.946-52.594-384.953-53.555-157.012-1.16-309.167,33.866-448.519,106.635v-102.653c139.352-72.769,291.508-107.795,448.519-106.635,130.007.96,258.723,23.969,384.953,53.555,248.201,58.173,493.215,145.552,749.793,158.271,174.117,8.631,344.01-24.252,499.01-105.191v102.653Z" stroke-width="0"></path>
      <path d="M2082.276,825.236c-155,80.939-324.894,113.823-499.01,105.191-256.578-12.719-501.592-100.098-749.793-158.271-126.229-29.585-254.945-52.594-384.953-53.555-157.012-1.16-309.167,33.866-448.519,106.635v-102.653c139.352-72.769,291.508-107.794,448.519-106.635,130.007.96,258.723,23.969,384.953,53.555,248.201,58.173,493.215,145.552,749.793,158.271,174.117,8.631,344.01-24.252,499.01-105.191,0,34.218,0,68.435,0,102.653Z" stroke-width="0"></path>
      <path d="M2082.275,1030.543c-155,80.939-324.894,113.823-499.01,105.191-256.578-12.72-501.592-100.097-749.793-158.271-126.229-29.585-254.945-52.594-384.953-53.554-157.012-1.16-309.167,33.865-448.519,106.634v-102.653c139.352-72.769,291.508-107.794,448.519-106.634,130.007.96,258.723,23.969,384.953,53.554,248.201,58.173,493.215,145.551,749.793,158.271,174.117,8.632,344.01-24.251,499.01-105.191,0,34.218,0,68.436,0,102.653Z" stroke-width="0"></path>
    </g>
  </g>
</svg>